<?xml version="1.0" standalone="no"?>
<!DOCTYPE svg PUBLIC "-//W3C//DTD SVG 20010904//EN"
 "http://www.w3.org/TR/2001/REC-SVG-20010904/DTD/svg10.dtd">
<svg version="1.0" xmlns="http://www.w3.org/2000/svg"
 width="500.000000pt" height="500.000000pt" viewBox="0 0 500.000000 500.000000"
 preserveAspectRatio="xMidYMid meet">

<g transform="translate(0.000000,500.000000) scale(0.100000,-0.100000)"
fill="#000000" stroke="none">
<path d="M1205 2216 c-43 -19 -66 -49 -72 -94 -7 -52 13 -89 82 -147 56 -48
68 -78 43 -103 -29 -29 -78 5 -78 55 0 25 -14 29 -54 13 -38 -14 -34 -51 9
-94 75 -75 205 -53 235 40 18 54 5 96 -42 140 -22 22 -52 49 -65 62 -31 28
-28 66 5 70 18 3 26 -3 35 -28 10 -27 15 -30 42 -24 53 11 56 16 37 54 -30 60
-110 86 -177 56z"/>
<path d="M2130 2201 c-21 -6 -26 -14 -28 -49 -3 -39 -6 -42 -41 -52 -74 -20
-120 -104 -106 -195 9 -63 41 -95 93 -95 23 0 45 6 52 15 17 21 30 19 30 -6 0
-17 5 -20 38 -17 l37 3 7 190 c4 105 5 196 3 203 -5 13 -44 14 -85 3z m-20
-225 c0 -54 -4 -77 -15 -86 -25 -21 -39 4 -39 65 1 53 21 95 46 95 4 0 8 -33
8 -74z"/>
<path d="M2716 2188 c-14 -55 -8 -68 32 -69 20 0 54 -3 76 -7 l38 -7 -46 -60
c-25 -33 -64 -82 -86 -108 -29 -35 -40 -58 -40 -82 0 -36 -8 -34 192 -51 85
-7 81 -10 93 59 l6 38 -92 -7 -92 -7 90 102 c65 73 93 113 98 138 3 19 4 37 1
40 -6 6 -212 42 -242 43 -14 0 -24 -8 -28 -22z"/>
<path d="M1446 2136 c-5 -24 -12 -33 -24 -32 -12 1 -18 -8 -20 -26 -2 -20 1
-28 12 -28 13 0 16 -12 16 -60 0 -105 38 -162 111 -164 33 -1 45 5 65 27 31
37 31 65 -2 77 -38 15 -44 13 -44 -14 0 -14 -4 -27 -9 -30 -11 -7 -19 57 -13
112 5 41 5 42 42 42 31 0 39 4 44 23 10 36 8 39 -31 35 -37 -3 -38 -2 -35 28
3 28 0 32 -29 38 -64 13 -76 9 -83 -28z"/>
<path d="M3724 2101 c-120 -73 -125 -265 -7 -287 48 -9 98 3 133 32 37 32 37
40 0 59 -39 20 -45 19 -58 -10 -15 -32 -40 -32 -52 1 -18 47 -14 51 56 57 75
6 84 13 84 75 0 82 -80 119 -156 73z m64 -72 c-2 -16 -11 -25 -26 -27 -21 -3
-23 -1 -17 20 17 53 51 58 43 7z"/>
<path d="M1703 2103 c-26 -5 -32 -19 -40 -94 -8 -75 2 -122 33 -159 23 -27 32
-30 81 -30 49 0 59 4 88 33 34 34 55 101 55 177 0 56 -7 68 -38 63 -77 -12
-72 -5 -72 -101 0 -48 -5 -94 -10 -102 -20 -30 -31 13 -28 112 3 90 2 97 -17
102 -11 3 -22 5 -25 5 -3 -1 -15 -4 -27 -6z"/>
<path d="M2289 2084 c-6 -16 -12 -63 -13 -106 -1 -63 3 -81 20 -105 29 -38 66
-50 101 -33 15 8 32 16 36 18 8 4 2 -48 -10 -90 -7 -27 -32 -22 -43 8 -9 23
-14 26 -42 20 -42 -8 -52 -19 -44 -50 12 -50 96 -71 160 -41 55 26 80 84 84
195 1 52 -1 115 -5 140 l-8 45 -48 3 c-57 4 -60 -1 -49 -91 7 -57 6 -69 -8
-82 -15 -14 -18 -14 -30 0 -9 11 -11 38 -7 100 6 83 5 85 -16 85 -12 0 -32 3
-44 6 -18 5 -25 1 -34 -22z"/>
<path d="M3086 2091 c-81 -54 -100 -190 -33 -251 28 -27 101 -27 144 0 80 48
105 209 40 255 -31 21 -115 19 -151 -4z m78 -57 c8 -20 8 -102 0 -132 -10 -37
-37 -22 -47 25 -14 73 25 163 47 107z"/>
<path d="M3327 2103 c-9 -8 -9 -127 -1 -226 7 -76 7 -77 35 -77 56 0 59 5 59
100 0 72 3 92 19 111 33 41 45 14 35 -78 -4 -43 -8 -82 -9 -88 0 -5 22 -10 50
-10 47 0 50 2 56 30 4 17 7 67 8 113 1 76 -1 85 -24 107 -30 30 -64 32 -99 4
l-26 -20 0 20 c0 18 -6 21 -48 21 -27 0 -52 -3 -55 -7z"/>
</g>
</svg>
